inDegrees=no
num_controls=7
num_derivatives=13
num_iterations=128
num_multipliers=7
num_parameters=0
num_slacks=7
num_states=26
objective=5.907424
objective_accelerations=0.573563
objective_balance=0.027263
objective_effort=0.570630
objective_height=4.641008
objective_ligament=0.094959
solver_duration=1452.330665
status=Solve_Succeeded
success=true
DataType=double
version=3
OpenSimVersion=4.4-2022-07-23-0e9fedc
endheader
time	/jointset/ground_pelvis/pelvis_tilt/value	/jointset/ground_pelvis/pelvis_tx/value	/jointset/ground_pelvis/pelvis_ty/value	/jointset/hip_l/hip_flexion_l/value	/jointset/hip_l/hip_adduction_l/value	/jointset/hip_l/hip_rotation_l/value	/jointset/back/lumbar_extension/value	/jointset/patellofemoral_l/patellar_flexion_l/value	/jointset/knee_l/knee_flexion_l/value	/jointset/knee_l/knee_adduction_l/value	/jointset/knee_l/knee_rotation_l/value	/jointset/ankle_l/ankle_angle_l/value	/jointset/subtalar_l/subtalar_angle_l/value	/jointset/ground_pelvis/pelvis_tilt/speed	/jointset/ground_pelvis/pelvis_tx/speed	/jointset/ground_pelvis/pelvis_ty/speed	/jointset/hip_l/hip_flexion_l/speed	/jointset/hip_l/hip_adduction_l/speed	/jointset/hip_l/hip_rotation_l/speed	/jointset/back/lumbar_extension/speed	/jointset/patellofemoral_l/patellar_flexion_l/speed	/jointset/knee_l/knee_flexion_l/speed	/jointset/knee_l/knee_adduction_l/speed	/jointset/knee_l/knee_rotation_l/speed	/jointset/ankle_l/ankle_angle_l/speed	/jointset/subtalar_l/subtalar_angle_l/speed	/forceset/tau_hip_flexion_l	/forceset/tau_hip_adduction_l	/forceset/tau_hip_rotation_l	/forceset/tau_knee_flexion_l	/forceset/tau_ankle_angle_l	/forceset/tau_subtalar_angle_l	/forceset/tau_lumbar_extension	lambda_cid13_p0	lambda_cid13_p1	lambda_cid13_p2	lambda_cid13_p3	lambda_cid13_p4	lambda_cid13_p5	lambda_cid14_p0	/jointset/ground_pelvis/pelvis_tilt/accel	/jointset/ground_pelvis/pelvis_tx/accel	/jointset/ground_pelvis/pelvis_ty/accel	/jointset/hip_l/hip_flexion_l/accel	/jointset/hip_l/hip_adduction_l/accel	/jointset/hip_l/hip_rotation_l/accel	/jointset/back/lumbar_extension/accel	/jointset/patellofemoral_l/patellar_flexion_l/accel	/jointset/knee_l/knee_flexion_l/accel	/jointset/knee_l/knee_adduction_l/accel	/jointset/knee_l/knee_rotation_l/accel	/jointset/ankle_l/ankle_angle_l/accel	/jointset/subtalar_l/subtalar_angle_l/accel	gamma_cid13_p0	gamma_cid13_p1	gamma_cid13_p2	gamma_cid13_p3	gamma_cid13_p4	gamma_cid13_p5	gamma_cid14_p0
0.5	-0.1656658862189803	-0.08099746651456147	0.79422385245071	1.039291059947898	-0.3268049893156508	-0.09297983696996974	-0.7964994621365359	0.8749178168308501	0.8749178168307131	-0.1047076134163564	-0.1744613239902438	0.05940479379845118	-0.01462831035754685	-0.3210693465322244	-0.241795125034952	-0.4528425887568505	1.883806107351457	-0.02938767686274973	0.5317985339602224	-0.8302089475505712	1.659843138138609	1.659843138138612	0.1433548672447679	0.000507354436779774	0.2017227430193188	0.02881185185364829	-0.3155646586439939	0.01102989503629746	-0.003861848908094709	-0.2241388851551447	0.145409774648934	0.05129505389878544	0.3508366034933657	2.163066374357854	-23.49765641742081	4.253031178624203	-14.05176020302527	-702.2295507663844	-75.96559979039351	-11.60886710103192	0.4039439550545577	0.8167531478220749	-0.1761756797927005	-1.640427353897887	0.3210538460110109	-0.4365099778585962	1.948891054120304	-1.290427183678141	-1.290427183678156	-0.2382404743655739	-0.006366441382824185	-0.1055631748889654	0.3138822004790325	-2.267568703369319e-07	-1.99081178866317e-07	1.175522170772149e-06	1.123881300859829e-07	-2.466783344420629e-07	1.605564915985142e-07	-1.973636532421501e-07
0.51	-0.1688558153434698	-0.08337447392352715	0.7896876205359189	1.058044184074306	-0.3270836958890531	-0.08768315381462319	-0.8047033865952097	0.8914490979747454	0.891449097974653	-0.1032884036239191	-0.1744566613104787	0.06141594192799759	-0.01432569622021816	-0.3168700837684912	-0.2335985622433086	-0.4543016737609045	1.866560065204729	-0.02636038546046262	0.5274763842802419	-0.8104935870784897	1.646169853309701	1.6461698533097	0.140475447492115	0.000422641509199461	0.2004586050894545	0.03169061381056735	-0.3232819194805587	0.01095925298704673	-0.004055183731568778	-0.2270887668591385	0.1465355434460114	0.05155604876703247	0.3579474924125532	2.225874413418794	-23.55601808170578	4.186963710722639	-14.13440874866052	-707.249781844856	-75.80054773172195	-10.95176221005582	0.4348528432581157	0.822299852641559	-0.1155044528253436	-1.805520976112176	0.2924230354737229	-0.4395016605270208	1.995212109642034	-1.442226051067292	-1.442226051067808	-0.3145469869173669	-0.009664213436884323	-0.1440802826423013	0.271709077772684	-2.167753444116423e-07	-1.528019433212857e-07	1.164263779850064e-06	1.138925248871906e-07	-2.289965090961056e-07	1.805959976449197e-07	-1.89059742394649e-07
0.52	-0.1720023647590586	-0.08566927730301468	0.7851398518626627	1.076617082113025	-0.3273323582987732	-0.08243157899559894	-0.8127076867359917	0.9078363568866559	0.9078363568865949	-0.101898338881323	-0.1744528738589349	0.06341300044213315	-0.0139949272864264	-0.3123934047557927	-0.2253543191393254	-0.455149940449695	1.847760889815898	-0.0233788441327555	0.5227768667019039	-0.7902840839708398	1.631038691737978	1.631038691737974	0.1375258572913929	0.0003323087819711759	0.1989048199353042	0.03444281114646145	-0.3309991803172673	0.01088861093783159	-0.004248518555362955	-0.2300386485631331	0.1476613122431193	0.05181704363532793	0.3650583813315996	2.284621465844716	-23.61467906852602	4.122098935593629	-14.24746738900809	-712.3586525443146	-75.68696722076699	-10.29330187581341	0.4594272048472828	0.8262892102903099	-0.0540120167399489	-1.951054002318602	0.311903831094877	-0.5119835575303181	2.047719581233889	-1.582002532241107	-1.582002532241068	-0.2522745639794249	-0.007490401312624278	-0.1634926197457847	0.2885692762740866	-2.054781855303795e-07	-1.150159956110468e-07	1.140739005173176e-06	1.133744795176831e-07	-2.10721158299232e-07	1.984657186037161e-07	-1.802775536653897e-07
0.53	-0.1751028255017781	-0.08788148255734797	0.7805866551959123	1.094994452936888	-0.3275513624450568	-0.07722883759122778	-0.8205075364607337	0.9240652070106085	0.9240652070106198	-0.1005379272409916	-0.1744499478151668	0.06539315913592855	-0.01363716853204538	-0.3076552487742434	-0.2170865089024558	-0.4553865003186621	1.827466796830386	-0.0204301140613993	0.5177060864383582	-0.7696184457609844	1.614501121672692	1.614501121672704	0.1345537035927265	0.0002483401116825188	0.197083588318373	0.03708862044189943	-0.3385003967832947	0.01078088149816049	-0.004404074224597043	-0.2329175371517283	0.1485871013553396	0.05190989212417164	0.3719039167643406	2.281144366994751	-23.5874455762107	4.041285128995701	-14.22254183978901	-717.2987102418231	-75.43909034679798	-9.635457564816235	0.4875121707855602	0.827082975321075	0.006915691067923926	-2.105586456281043	0.2850021939510458	-0.514583325823969	2.086098223373227	-1.724130817488198	-1.72413081748585	-0.3200997366143707	-0.009303810984585655	-0.1979339175932315	0.2494221958030977	-1.938967789036478e-07	-8.344776684901207e-08	1.110063771387946e-06	1.11636400382073e-07	-1.932972894152496e-07	2.135371251074142e-07	-1.714234124858146e-07
0.54	-0.1781546042094665	-0.09001099850032492	0.7760341716630792	1.113161482928961	-0.3277411503708368	-0.07207879560254842	-0.8280987073468815	0.9401217821191313	0.940121782119262	-0.0992073199303808	-0.1744479522003247	0.0673538064165773	-0.01325358459678612	-0.3026569977536637	-0.2088164568680597	-0.4550073136660934	1.805692723460312	-0.01753560003825425	0.5122369835725228	-0.7485483162506846	1.596583688654763	1.596583688654791	0.1315649913419024	0.0001462229975007862	0.1950025373043833	0.03960784732231618	-0.3460016132494764	0.0106731520584923	-0.004559629893399969	-0.2357964257403466	0.1495128904675791	0.05200274061301911	0.3787494521969391	2.273040787017947	-23.56030166706984	3.961514093364662	-14.22622983292786	-722.334553281305	-75.24046723565367	-8.980060202704832	0.5114462126530477	0.8267375697958971	0.06913728756725528	-2.247050079231301	0.3010606214525802	-0.5916480779884755	2.12861784132263	-1.857975122769595	-1.857975122769582	-0.2555862744109653	-0.01112009009143656	-0.2154564991571457	0.2632527932698802	-1.820008854095888e-07	-5.875871649775636e-08	1.071477391355188e-06	1.085484966541793e-07	-1.76815485626381e-07	2.255125241288759e-07	-1.624896643399329e-07
